<svg xmlns="http://www.w3.org/2000/svg" width="1600" height="1000" viewBox="0 0 1600 1000">
  <defs>
    <symbol id="drdLogo" viewBox="0 0 200 200">
      <path d="M193.949 93.948C190.606 93.948 187.897 96.6569 187.897 99.9997C187.897 114.985 175.698 127.185 160.714 127.185H133.243C129.9 127.185 127.191 129.894 127.191 133.237V160.711C127.191 175.696 114.992 187.896 100.008 187.896C85.0235 187.896 72.8248 175.696 72.8248 160.711V133.237C72.8248 129.894 70.1162 127.185 66.7733 127.185C63.4308 127.185 60.7222 129.894 60.7222 133.237V160.711C60.7222 182.382 78.3573 200 100.008 200C121.678 200 139.294 182.363 139.294 160.711V139.289H160.714C182.384 139.289 200 121.652 200 99.9997C200 96.6569 197.291 93.948 193.949 93.948Z" fill="#75D0C5"/><path d="M99.9921 0C78.3222 0 60.706 17.637 60.706 39.2893V60.7109H39.2861C17.6163 60.7109 0 78.3479 0 100C0 103.343 2.70865 106.052 6.05131 106.052C9.39399 106.052 12.1028 103.343 12.1028 100C12.1028 85.0146 24.3016 72.8147 39.2861 72.8147H66.7575C70.1 72.8147 72.8086 70.1058 72.8086 66.763V39.2893C72.8086 24.3036 85.0077 12.1038 99.9921 12.1038C114.977 12.1038 127.175 24.3036 127.175 39.2893V66.763C127.175 70.1058 129.884 72.8147 133.227 72.8147C136.569 72.8147 139.278 70.1058 139.278 66.763V39.2893C139.278 17.6177 121.662 0 99.9921 0Z" fill="white"/>
    </symbol>
  </defs>

  <rect width="1600" height="1000" fill="#2F3136" />
  <rect x="70" y="70" width="1460" height="860" fill="#3A3D42" rx="20" />

  <text x="70" y="40" fill="#F2F2F2" font-size="30" font-family="Helvetica, Arial, sans-serif">Dr.Dropin Coordinate Verification - Oslo + Sandvika</text>
  <text x="70" y="72" fill="#D0D0D0" font-size="18" font-family="Helvetica, Arial, sans-serif">Clinics: 24 | Start: Sørkedalsveien 8a, 0369 Oslo</text>

  <polyline points="1008.89,289.78 1008.89,289.78 1001.76,287.54 1020.97,306.10 1026.76,317.23 1050.83,325.17 1081.96,356.96 1073.42,419.95 1082.52,433.14 1116.40,351.83 1160.43,429.04 1144.67,468.35 1197.04,472.92 1209.70,337.97 1218.53,333.63 1240.87,262.77 1267.82,313.56 1254.15,144.58 1106.27,129.31 878.00,371.43 1350.75,431.14 1429.31,313.74 1414.29,870.69 180.53,599.13 170.69,632.26" fill="none" stroke="#FFD84D" stroke-width="5" stroke-linejoin="round" stroke-linecap="round" opacity="0.95" />

  <g><title>Barcode: Allmennlege</title><use href="#drdLogo" x="1183.04" y="458.92" width="28" height="28" /></g><g><title>Bedriftshelsetjeneste</title><use href="#drdLogo" x="994.89" y="275.78" width="28" height="28" /></g><g><title>Bislett: Allmennlege, Fysioterapi, Kiropraktor</title><use href="#drdLogo" x="1102.40" y="337.83" width="28" height="28" /></g><g><title>Bogstadveien: Allmennlege</title><use href="#drdLogo" x="1036.83" y="311.17" width="28" height="28" /></g><g><title>Carl Berner: Allmennlege, Fysioterapeut, Kiropraktor, Psykolog</title><use href="#drdLogo" x="1253.82" y="299.56" width="28" height="28" /></g><g><title>Ensjø: Allmennlege, Hudlege, Gynekolog, Fysioterapeut, Kiropraktor</title><use href="#drdLogo" x="1336.75" y="417.14" width="28" height="28" /></g><g><title>Grünerløkka, Markveien: Fysioterapeut, Osteopat, Kiropraktor</title><use href="#drdLogo" x="1195.70" y="323.97" width="28" height="28" /></g><g><title>Grünerløkka: Allmennlege, Gynekolog</title><use href="#drdLogo" x="1204.53" y="319.63" width="28" height="28" /></g><g><title>Hegdehaugsveien: Hudlege, Gynekolog, Fysioterapeut, Kiropraktor, Psykolog, Øre-Nese-Hals</title><use href="#drdLogo" x="1067.96" y="342.96" width="28" height="28" /></g><g><title>Huitfeldts gate: Psykolog, Psykiater</title><use href="#drdLogo" x="1059.42" y="405.95" width="28" height="28" /></g><g><title>Kirkegata: Psykolog</title><use href="#drdLogo" x="1130.67" y="454.35" width="28" height="28" /></g><g><title>Kirkeveien: Hudlege, Gynekolog, FotoFinder, Gastro</title><use href="#drdLogo" x="1006.97" y="292.10" width="28" height="28" /></g><g><title>Majorstuen: Fysioterapi, Kiropraktor</title><use href="#drdLogo" x="1012.76" y="303.23" width="28" height="28" /></g><g><title>Nordstrand (Sæter Torg): Allmennlege, Hudlege, Psykolog, Gynekolog</title><use href="#drdLogo" x="1400.29" y="856.69" width="28" height="28" /></g><g><title>Nydalen: Allmennlege</title><use href="#drdLogo" x="1240.15" y="130.58" width="28" height="28" /></g><g><title>Skøyen: Allmennlege, Gynekolog</title><use href="#drdLogo" x="864.00" y="357.43" width="28" height="28" /></g><g><title>Stortorvet: Allmennlege</title><use href="#drdLogo" x="1146.43" y="415.04" width="28" height="28" /></g><g><title>Sørkedalsveien: Øyehelseklinikken</title><use href="#drdLogo" x="987.76" y="273.54" width="28" height="28" /></g><g><title>Torshov: Allmennlege</title><use href="#drdLogo" x="1226.87" y="248.77" width="28" height="28" /></g><g><title>Ullevål Stadion: Allmennlege</title><use href="#drdLogo" x="1092.27" y="115.31" width="28" height="28" /></g><g><title>Vika Terrasse: Allmennlege, BHT</title><use href="#drdLogo" x="1068.52" y="419.14" width="28" height="28" /></g><g><title>Økern: Allmennlege, Psykolog, Fysioterapeut og Kiropraktor</title><use href="#drdLogo" x="1415.31" y="299.74" width="28" height="28" /></g><g><title>Sandvika Sentrum: Allmennlege, Hudlege</title><use href="#drdLogo" x="156.69" y="618.26" width="28" height="28" /></g><g><title>Sandvika Stasjon: Fysioterapeut, Kiropraktor, Psykolog</title><use href="#drdLogo" x="166.53" y="585.13" width="28" height="28" /></g>

  <circle cx="1008.89" cy="289.78" r="12" fill="#111111" stroke="#FFFFFF" stroke-width="3" />
  <circle cx="1008.89" cy="289.78" r="4.5" fill="#FFFFFF" />
  <text x="1024.89" y="273.78" fill="#FFFFFF" font-size="15" font-family="Helvetica, Arial, sans-serif">Start</text>
</svg>
